<?xml version="1.0" encoding="iso-8859-1"?>
<!-- Generator: Adobe Illustrator 19.0.0, SVG Export Plug-In . SVG Version: 6.00 Build 0)  -->
<svg version="1.1" id="Layer_1" xmlns="http://www.w3.org/2000/svg" xmlns:xlink="http://www.w3.org/1999/xlink" x="0px" y="0px"
	 viewBox="0 0 512 512" style="enable-background:new 0 0 512 512;" xml:space="preserve">
<g>
	<g>
		<path d="M459.473,398.099h-53.08c-4.58,0-8.294,3.713-8.294,8.294c0,4.58,3.713,8.294,8.294,8.294h28.889
			c-4.915,5.56-10.064,10.848-15.408,15.881c-3.054-1.818-6.321-3.261-9.776-4.298l-60.388-18.116l-16.037-24.054
			c-1.264-1.896-3.253-3.189-5.5-3.574c-0.65-0.112-1.305-0.135-1.953-0.092v-26.185l4.516-3.763
			c8.114-6.761,13.5-16.228,15.169-26.655l1.033-6.456h6.375c14.329,0,25.987-11.658,25.987-25.987v-17.693
			c0-12.723-9.193-23.333-21.285-25.552l8.067-50.423c3.664-22.897-2.864-46.149-17.91-63.793
			c-15.046-17.645-36.974-27.766-60.163-27.766h-64.019c-23.189,0-45.118,10.119-60.164,27.764s-21.574,40.896-17.91,63.793
			l8.067,50.423c-12.091,2.22-21.284,12.831-21.284,25.554v17.693c0,14.329,11.658,25.987,25.987,25.987h6.375l1.033,6.456
			c1.669,10.428,7.055,19.894,15.169,26.655l4.516,3.764v26.185c-0.648-0.044-1.303-0.02-1.953,0.092
			c-2.247,0.386-4.236,1.678-5.5,3.574l-16.037,24.054l-60.388,18.116c-3.441,1.033-6.702,2.465-9.751,4.276
			c-1.833-1.724-3.653-3.469-5.441-5.256C41.491,380.071,16.587,319.949,16.587,256c0-38.695,9.443-77.13,27.307-111.148
			c2.13-4.055,0.568-9.07-3.487-11.199c-4.056-2.13-9.069-0.568-11.199,3.487C10.101,173.527,0,214.629,0,256
			c0,68.38,26.628,132.668,74.981,181.019S187.62,512,256,512c75.775,0,146.373-32.824,195.179-90.364v37.837
			c0,4.58,3.713,8.294,8.294,8.294c4.58,0,8.294-3.713,8.294-8.294v-53.08C467.767,401.813,464.053,398.099,459.473,398.099z
			 M334.39,415.077l-35.816,50.142l-29.034-23.227l55.194-41.397L334.39,415.077z M362.713,273.693v17.693
			c0,5.183-4.216,9.4-9.4,9.4h-3.721l5.8-36.253C359.578,265.484,362.713,269.226,362.713,273.693z M158.687,300.786
			c-5.183,0-9.4-4.217-9.4-9.4v-17.693c0-4.468,3.135-8.21,7.32-9.16l5.801,36.253H158.687z M170.714,247.706l-8.418-52.608
			c-2.895-18.095,2.264-36.469,14.152-50.411c11.89-13.942,29.218-21.94,47.542-21.94h64.019c18.324,0,35.652,7.996,47.542,21.94
			c11.889,13.942,17.049,32.318,14.152,50.411l-7.611,47.568l-7.109-49.766c-0.347-2.435-1.758-4.589-3.851-5.882
			c-2.091-1.293-4.65-1.59-6.982-0.813c-0.783,0.26-78.934,26.113-130.077,26.113c-3.142,0-6.013,1.775-7.418,4.585l-15.401,30.802
			H170.714z M182.473,321.209l-9.107-56.915h3.013c3.142,0,6.013-1.775,7.418-4.585l15.439-30.877
			c42.921-1.229,98.679-17.104,120.711-23.887l7.461,52.227c0.584,4.086,4.083,7.12,8.211,7.12h3.013l-6.374,39.841
			c-1.936,2.177-22.082,23.193-76.259,23.193c-4.58,0-8.294,3.713-8.294,8.294c0,4.58,3.713,8.294,8.294,8.294
			c34.771,0,57.522-7.973,71.388-15.672c-1.673,3.64-4.145,6.895-7.27,9.5l-35.506,29.589c-3.272,2.727-7.421,4.229-11.681,4.229
			h-33.863c-4.26,0-8.409-1.502-11.681-4.229l-35.506-29.589C186.85,333.549,183.508,327.677,182.473,321.209z M187.265,400.595
			l55.194,41.397l-29.034,23.227l-35.816-50.142L187.265,400.595z M247.706,495.254c-52.257-1.768-101.599-20.211-141.896-52.794
			c0.289-0.096,0.566-0.216,0.858-0.303l57.565-17.269l40.784,57.099c1.324,1.853,3.353,3.081,5.609,3.394
			c0.379,0.053,0.761,0.079,1.14,0.079c1.872,0,3.702-0.634,5.181-1.818l30.759-24.607V495.254z M202.367,391.188v-23.116
			l14.401,12.002c6.247,5.206,14.167,8.074,22.3,8.074h33.863c8.132,0,16.052-2.867,22.3-8.074l14.401-12.002v23.116L256,431.413
			L202.367,391.188z M264.294,495.257v-36.22l30.759,24.607c1.479,1.183,3.309,1.818,5.181,1.818c0.379,0,0.761-0.025,1.14-0.079
			c2.257-0.313,4.285-1.54,5.609-3.394l40.784-57.099l57.565,17.269c0.316,0.094,0.626,0.2,0.937,0.306
			C366.247,474.844,316.779,493.476,264.294,495.257z"/>
	</g>
</g>
<g>
	<g>
		<path d="M437.019,74.981C388.668,26.628,324.38,0,256,0c-40.549,0-79.333,9.206-115.277,27.364
			c-30.38,15.347-57.772,36.991-79.902,63.007V52.527c0-4.58-3.713-8.294-8.294-8.294c-4.58,0-8.294,3.713-8.294,8.294v53.08
			c0,4.58,3.713,8.294,8.294,8.294h53.08c4.58,0,8.294-3.713,8.294-8.294c0-4.58-3.713-8.294-8.294-8.294H76.771
			c20.1-22.646,44.508-41.544,71.431-55.143C181.805,25.194,218.074,16.587,256,16.587c63.949,0,124.071,24.903,169.291,70.122
			c45.219,45.22,70.122,105.341,70.122,169.291c0,38.695-9.443,77.13-27.307,111.148c-2.13,4.055-0.568,9.07,3.487,11.199
			c1.231,0.646,2.549,0.952,3.848,0.952c2.984,0,5.866-1.615,7.349-4.44C501.899,338.473,512,297.371,512,256
			C512,187.62,485.372,123.332,437.019,74.981z"/>
	</g>
</g>
<g>
</g>
<g>
</g>
<g>
</g>
<g>
</g>
<g>
</g>
<g>
</g>
<g>
</g>
<g>
</g>
<g>
</g>
<g>
</g>
<g>
</g>
<g>
</g>
<g>
</g>
<g>
</g>
<g>
</g>
</svg>
