<svg width="34" height="29" viewBox="0 0 34 29" fill="none" xmlns="http://www.w3.org/2000/svg">
<path d="M24.8571 29V26.9285C24.8571 26.6565 24.8035 26.3872 24.6994 26.1358C24.5953 25.8846 24.4428 25.6562 24.2504 25.4637C24.058 25.2714 23.8296 25.1189 23.5784 25.0148C23.327 24.9107 23.0577 24.8571 22.7856 24.8571H14.4994C11.7525 24.8571 9.11811 23.7659 7.17574 21.8236C5.23338 19.8812 4.14217 17.2469 4.14212 14.5C4.14212 13.1399 4.41002 11.7931 4.93053 10.5365C5.45103 9.27988 6.21394 8.13813 7.17571 7.17636C8.13747 6.21462 9.27924 5.45173 10.5358 4.93125C11.7924 4.41076 13.1392 4.14289 14.4994 4.1429H22.785C23.057 4.14298 23.3266 4.08946 23.5779 3.98541C23.8293 3.88134 24.0578 3.72877 24.2501 3.53641C24.4426 3.34404 24.5952 3.11566 24.6994 2.8643C24.8035 2.61294 24.8571 2.34353 24.8571 2.07145V0H14.4998C12.5957 -1.09289e-10 10.7102 0.375055 8.95095 1.10375C7.19174 1.83244 5.59329 2.90051 4.24686 4.24696C2.90042 5.59341 1.83236 7.19188 1.10369 8.95111C0.375015 10.7103 -2.04014e-05 12.5958 8.32381e-10 14.5C-7.21129e-10 18.3456 1.52765 22.0337 4.24689 24.753C6.96614 27.4723 10.6542 29 14.4998 29H24.8571Z" fill="white"/>
<path d="M8.28503 14.5C8.28503 16.1481 8.93973 17.7287 10.1051 18.8939C11.2704 20.0594 12.851 20.714 14.4991 20.714H24.8571C25.9559 20.714 27.0095 21.1506 27.7864 21.9275C28.5633 22.7044 28.9999 23.7581 28.9999 24.8569V28.9998H33.1428V24.8571C33.1428 22.6597 32.2698 20.5522 30.716 18.9982C29.162 17.4444 27.0545 16.5715 24.8571 16.5715H14.4994C13.95 16.5715 13.4231 16.3532 13.0346 15.9648C12.6462 15.5763 12.4279 15.0494 12.4279 14.5C12.4279 13.9506 12.6462 13.4237 13.0346 13.0353C13.4231 12.6468 13.95 12.4285 14.4994 12.4285H24.8571C27.0545 12.4285 29.162 11.5556 30.716 10.0017C32.2698 8.44788 33.1428 6.34039 33.1428 4.1429V0H28.9992V4.1429C28.9992 5.24151 28.5629 6.29515 27.7861 7.07205C27.0093 7.84894 25.9557 8.28548 24.8571 8.28565H14.4994C13.6833 8.2856 12.8752 8.44631 12.1212 8.7586C11.3672 9.07088 10.6821 9.52864 10.1051 10.1057C9.52803 10.6828 9.07029 11.3678 8.758 12.1218C8.44571 12.8758 8.285 13.6839 8.28503 14.5Z" fill="white"/>
<path d="M8.28503 14.5C8.28503 16.1481 8.93973 17.7287 10.1051 18.8939C11.2704 20.0594 12.851 20.714 14.4991 20.714H24.8571C25.9559 20.714 27.0095 21.1506 27.7864 21.9275C28.5633 22.7044 28.9999 23.7581 28.9999 24.8569V28.9998H33.1428V24.8571C33.1428 22.6597 32.2698 20.5522 30.716 18.9982C29.162 17.4444 27.0545 16.5715 24.8571 16.5715H14.4994C13.95 16.5715 13.4231 16.3532 13.0346 15.9648C12.6462 15.5763 12.4279 15.0494 12.4279 14.5C12.4279 13.9506 12.6462 13.4237 13.0346 13.0353C13.4231 12.6468 13.95 12.4285 14.4994 12.4285H24.8571C27.0545 12.4285 29.162 11.5556 30.716 10.0017C32.2698 8.44788 33.1428 6.34039 33.1428 4.1429V0H28.9992V4.1429C28.9992 5.24151 28.5629 6.29515 27.7861 7.07205C27.0093 7.84894 25.9557 8.28548 24.8571 8.28565H14.4994C13.6833 8.2856 12.8752 8.44631 12.1212 8.7586C11.3672 9.07088 10.6821 9.52864 10.1051 10.1057C9.52803 10.6828 9.07029 11.3678 8.758 12.1218C8.44571 12.8758 8.285 13.6839 8.28503 14.5Z" fill="#00A275"/>
</svg>
